# MagicaVoxel @ Ephtracy

# group
o 

# material
mtllib purple_diamond.mtl
usemtl palette

# normals
vn -1 0 0
vn 1 0 0
vn 0 0 1
vn 0 0 -1
vn 0 -1 0
vn 0 1 0

# texcoords
vt 0.970703 0.5
vt 0.974609 0.5
vt 0.978516 0.5
vt 0.982422 0.5
vt 0.986328 0.5
vt 0.990234 0.5

# verts
v -0.6 0.4 0.2
v -0.6 0.4 0.1
v -0.6 0.8 0.2
v -0.6 0.8 0.1
v -0.5 0.2 0.2
v -0.5 0.2 0.1
v -0.5 0.4 0.3
v -0.5 0.4 0.2
v -0.5 0.4 0.1
v -0.5 0.4 0
v -0.5 0.8 0.3
v -0.5 0.8 0.2
v -0.5 0.8 0.1
v -0.5 0.8 0
v -0.5 1 0.2
v -0.5 1 0.1
v -0.4 0.1 0.2
v -0.4 0.1 0.1
v -0.4 0.2 0.3
v -0.4 0.2 0.2
v -0.4 0.2 0.1
v -0.4 0.2 0
v -0.4 0.4 0.3
v -0.4 0.4 0.2
v -0.4 0.4 0.1
v -0.4 0.4 0
v -0.4 0.8 0.3
v -0.4 0.8 0.2
v -0.4 0.8 0.1
v -0.4 0.8 0
v -0.4 1 0.3
v -0.4 1 0.2
v -0.4 1 0.1
v -0.4 1 0
v -0.4 1.1 0.2
v -0.4 1.1 0.1
v -0.3 0 0.2
v -0.3 0 0.1
v -0.3 0.1 0.3
v -0.3 0.1 0.2
v -0.3 0.1 0.1
v -0.3 0.1 0
v -0.3 0.2 0.3
v -0.3 0.2 0.2
v -0.3 0.2 0.1
v -0.3 0.2 0
v -0.3 1 0.3
v -0.3 1 0.2
v -0.3 1 0.1
v -0.3 1 0
v -0.3 1.1 0.3
v -0.3 1.1 0.2
v -0.3 1.1 0.1
v -0.3 1.1 0
v -0.3 1.2 0.2
v -0.3 1.2 0.1
v -0.2 1.1 0.3
v -0.2 1.1 0.2
v -0.2 1.1 0.1
v -0.2 1.1 0
v -0.2 1.2 0.3
v -0.2 1.2 0.2
v -0.2 1.2 0.1
v -0.2 1.2 0
v -0.2 1.3 0.2
v -0.2 1.3 0.1
v 0.2 1.1 0.3
v 0.2 1.1 0.2
v 0.2 1.1 0.1
v 0.2 1.1 0
v 0.2 1.2 0.3
v 0.2 1.2 0.2
v 0.2 1.2 0.1
v 0.2 1.2 0
v 0.2 1.3 0.2
v 0.2 1.3 0.1
v 0.3 0 0.2
v 0.3 0 0.1
v 0.3 0.1 0.3
v 0.3 0.1 0.2
v 0.3 0.1 0.1
v 0.3 0.1 0
v 0.3 0.2 0.3
v 0.3 0.2 0.2
v 0.3 0.2 0.1
v 0.3 0.2 0
v 0.3 0.9 0.3
v 0.3 0.9 0.2
v 0.3 0.9 0.1
v 0.3 0.9 0
v 0.3 1.1 0.3
v 0.3 1.1 0.2
v 0.3 1.1 0.1
v 0.3 1.1 0
v 0.3 1.2 0.2
v 0.3 1.2 0.1
v 0.4 0.1 0.2
v 0.4 0.1 0.1
v 0.4 0.2 0.3
v 0.4 0.2 0.2
v 0.4 0.2 0.1
v 0.4 0.2 0
v 0.4 0.3 0.3
v 0.4 0.3 0.2
v 0.4 0.3 0.1
v 0.4 0.3 0
v 0.4 0.4 0.3
v 0.4 0.4 0.2
v 0.4 0.4 0.1
v 0.4 0.4 0
v 0.4 0.7 0.3
v 0.4 0.7 0.2
v 0.4 0.7 0.1
v 0.4 0.7 0
v 0.4 0.9 0.3
v 0.4 0.9 0.2
v 0.4 0.9 0.1
v 0.4 0.9 0
v 0.4 1.1 0.2
v 0.4 1.1 0.1
v 0.5 0.2 0.2
v 0.5 0.2 0.1
v 0.5 0.4 0.3
v 0.5 0.4 0.2
v 0.5 0.4 0.1
v 0.5 0.4 0
v 0.5 0.6 0.3
v 0.5 0.6 0.2
v 0.5 0.6 0.1
v 0.5 0.6 0
v 0.5 0.7 0.3
v 0.5 0.7 0.2
v 0.5 0.7 0.1
v 0.5 0.7 0
v 0.5 0.9 0.2
v 0.5 0.9 0.1
v 0.6 0.4 0.2
v 0.6 0.4 0.1
v 0.6 0.7 0.2
v 0.6 0.7 0.1
v -0.5 0.4 0.3
v -0.5 0.8 0.3
v -0.4 0.2 0.3
v -0.4 0.4 0.3
v -0.4 0.5 0.3
v -0.4 0.6 0.3
v -0.4 0.8 0.3
v -0.4 1 0.3
v -0.3 0.1 0.3
v -0.3 0.2 0.3
v -0.3 0.4 0.3
v -0.3 0.5 0.3
v -0.3 0.6 0.3
v -0.3 0.7 0.3
v -0.3 0.8 0.3
v -0.3 0.9 0.3
v -0.3 1 0.3
v -0.3 1.1 0.3
v -0.2 0.1 0.3
v -0.2 0.4 0.3
v -0.2 0.5 0.3
v -0.2 0.6 0.3
v -0.2 0.7 0.3
v -0.2 0.8 0.3
v -0.2 0.9 0.3
v -0.2 1 0.3
v -0.2 1.1 0.3
v -0.2 1.2 0.3
v -0.1 0.8 0.3
v -0.1 0.9 0.3
v 0 0.9 0.3
v 0 1 0.3
v 0.1 0.9 0.3
v 0.1 1 0.3
v 0.1 1.1 0.3
v 0.2 0.1 0.3
v 0.2 0.4 0.3
v 0.2 0.5 0.3
v 0.2 0.8 0.3
v 0.2 0.9 0.3
v 0.2 1 0.3
v 0.2 1.1 0.3
v 0.2 1.2 0.3
v 0.3 0.1 0.3
v 0.3 0.2 0.3
v 0.3 0.3 0.3
v 0.3 0.4 0.3
v 0.3 0.6 0.3
v 0.3 0.8 0.3
v 0.3 0.9 0.3
v 0.3 1.1 0.3
v 0.4 0.2 0.3
v 0.4 0.3 0.3
v 0.4 0.4 0.3
v 0.4 0.5 0.3
v 0.4 0.7 0.3
v 0.4 0.9 0.3
v 0.5 0.4 0.3
v 0.5 0.6 0.3
v 0.5 0.7 0.3
v -0.6 0.4 0.2
v -0.6 0.8 0.2
v -0.5 0.2 0.2
v -0.5 0.4 0.2
v -0.5 0.8 0.2
v -0.5 1 0.2
v -0.4 0.1 0.2
v -0.4 0.2 0.2
v -0.4 0.4 0.2
v -0.4 0.8 0.2
v -0.4 1 0.2
v -0.4 1.1 0.2
v -0.3 0 0.2
v -0.3 0.1 0.2
v -0.3 0.2 0.2
v -0.3 1 0.2
v -0.3 1.1 0.2
v -0.3 1.2 0.2
v -0.2 0.1 0.2
v -0.2 1.1 0.2
v -0.2 1.2 0.2
v -0.2 1.3 0.2
v 0.2 0.1 0.2
v 0.2 1.1 0.2
v 0.2 1.2 0.2
v 0.2 1.3 0.2
v 0.3 0 0.2
v 0.3 0.1 0.2
v 0.3 0.2 0.2
v 0.3 0.9 0.2
v 0.3 1.1 0.2
v 0.3 1.2 0.2
v 0.4 0.1 0.2
v 0.4 0.2 0.2
v 0.4 0.3 0.2
v 0.4 0.4 0.2
v 0.4 0.7 0.2
v 0.4 0.9 0.2
v 0.4 1.1 0.2
v 0.5 0.2 0.2
v 0.5 0.4 0.2
v 0.5 0.6 0.2
v 0.5 0.7 0.2
v 0.5 0.9 0.2
v 0.6 0.4 0.2
v 0.6 0.7 0.2
v -0.6 0.4 0.1
v -0.6 0.8 0.1
v -0.5 0.2 0.1
v -0.5 0.4 0.1
v -0.5 0.8 0.1
v -0.5 1 0.1
v -0.4 0.1 0.1
v -0.4 0.2 0.1
v -0.4 0.4 0.1
v -0.4 0.8 0.1
v -0.4 1 0.1
v -0.4 1.1 0.1
v -0.3 0 0.1
v -0.3 0.1 0.1
v -0.3 0.2 0.1
v -0.3 1 0.1
v -0.3 1.1 0.1
v -0.3 1.2 0.1
v -0.2 0.1 0.1
v -0.2 1.1 0.1
v -0.2 1.2 0.1
v -0.2 1.3 0.1
v 0.2 0.1 0.1
v 0.2 1.1 0.1
v 0.2 1.2 0.1
v 0.2 1.3 0.1
v 0.3 0 0.1
v 0.3 0.1 0.1
v 0.3 0.2 0.1
v 0.3 0.9 0.1
v 0.3 1.1 0.1
v 0.3 1.2 0.1
v 0.4 0.1 0.1
v 0.4 0.2 0.1
v 0.4 0.3 0.1
v 0.4 0.4 0.1
v 0.4 0.7 0.1
v 0.4 0.9 0.1
v 0.4 1.1 0.1
v 0.5 0.2 0.1
v 0.5 0.4 0.1
v 0.5 0.6 0.1
v 0.5 0.7 0.1
v 0.5 0.9 0.1
v 0.6 0.4 0.1
v 0.6 0.7 0.1
v -0.5 0.4 0
v -0.5 0.8 0
v -0.4 0.2 0
v -0.4 0.4 0
v -0.4 0.5 0
v -0.4 0.6 0
v -0.4 0.8 0
v -0.4 1 0
v -0.3 0.1 0
v -0.3 0.2 0
v -0.3 0.4 0
v -0.3 0.5 0
v -0.3 0.6 0
v -0.3 0.7 0
v -0.3 0.8 0
v -0.3 0.9 0
v -0.3 1 0
v -0.3 1.1 0
v -0.2 0.1 0
v -0.2 0.4 0
v -0.2 0.5 0
v -0.2 0.6 0
v -0.2 0.7 0
v -0.2 0.8 0
v -0.2 0.9 0
v -0.2 1 0
v -0.2 1.1 0
v -0.2 1.2 0
v -0.1 0.8 0
v -0.1 0.9 0
v 0 0.9 0
v 0 1 0
v 0.1 0.9 0
v 0.1 1 0
v 0.1 1.1 0
v 0.2 0.1 0
v 0.2 0.4 0
v 0.2 0.5 0
v 0.2 0.8 0
v 0.2 0.9 0
v 0.2 1 0
v 0.2 1.1 0
v 0.2 1.2 0
v 0.3 0.1 0
v 0.3 0.2 0
v 0.3 0.3 0
v 0.3 0.4 0
v 0.3 0.6 0
v 0.3 0.8 0
v 0.3 0.9 0
v 0.3 1.1 0
v 0.4 0.2 0
v 0.4 0.3 0
v 0.4 0.4 0
v 0.4 0.5 0
v 0.4 0.7 0
v 0.4 0.9 0
v 0.5 0.4 0
v 0.5 0.6 0
v 0.5 0.7 0
v -0.3 0 0.2
v 0.3 0 0.2
v -0.3 0 0.1
v 0.3 0 0.1
v -0.3 0.1 0.3
v -0.2 0.1 0.3
v 0.2 0.1 0.3
v 0.3 0.1 0.3
v -0.4 0.1 0.2
v -0.3 0.1 0.2
v -0.2 0.1 0.2
v 0.2 0.1 0.2
v 0.3 0.1 0.2
v 0.4 0.1 0.2
v -0.4 0.1 0.1
v -0.3 0.1 0.1
v -0.2 0.1 0.1
v 0.2 0.1 0.1
v 0.3 0.1 0.1
v 0.4 0.1 0.1
v -0.3 0.1 0
v -0.2 0.1 0
v 0.2 0.1 0
v 0.3 0.1 0
v -0.4 0.2 0.3
v -0.3 0.2 0.3
v 0.3 0.2 0.3
v 0.4 0.2 0.3
v -0.5 0.2 0.2
v -0.4 0.2 0.2
v -0.3 0.2 0.2
v 0.3 0.2 0.2
v 0.4 0.2 0.2
v 0.5 0.2 0.2
v -0.5 0.2 0.1
v -0.4 0.2 0.1
v -0.3 0.2 0.1
v 0.3 0.2 0.1
v 0.4 0.2 0.1
v 0.5 0.2 0.1
v -0.4 0.2 0
v -0.3 0.2 0
v 0.3 0.2 0
v 0.4 0.2 0
v -0.5 0.4 0.3
v -0.4 0.4 0.3
v 0.4 0.4 0.3
v 0.5 0.4 0.3
v -0.6 0.4 0.2
v -0.5 0.4 0.2
v -0.4 0.4 0.2
v 0.4 0.4 0.2
v 0.5 0.4 0.2
v 0.6 0.4 0.2
v -0.6 0.4 0.1
v -0.5 0.4 0.1
v -0.4 0.4 0.1
v 0.4 0.4 0.1
v 0.5 0.4 0.1
v 0.6 0.4 0.1
v -0.5 0.4 0
v -0.4 0.4 0
v 0.4 0.4 0
v 0.5 0.4 0
v 0.4 0.7 0.3
v 0.5 0.7 0.3
v 0.4 0.7 0.2
v 0.5 0.7 0.2
v 0.6 0.7 0.2
v 0.4 0.7 0.1
v 0.5 0.7 0.1
v 0.6 0.7 0.1
v 0.4 0.7 0
v 0.5 0.7 0
v -0.5 0.8 0.3
v -0.4 0.8 0.3
v -0.6 0.8 0.2
v -0.5 0.8 0.2
v -0.4 0.8 0.2
v -0.6 0.8 0.1
v -0.5 0.8 0.1
v -0.4 0.8 0.1
v -0.5 0.8 0
v -0.4 0.8 0
v 0.3 0.9 0.3
v 0.4 0.9 0.3
v 0.3 0.9 0.2
v 0.4 0.9 0.2
v 0.5 0.9 0.2
v 0.3 0.9 0.1
v 0.4 0.9 0.1
v 0.5 0.9 0.1
v 0.3 0.9 0
v 0.4 0.9 0
v -0.4 1 0.3
v -0.3 1 0.3
v -0.5 1 0.2
v -0.4 1 0.2
v -0.3 1 0.2
v -0.5 1 0.1
v -0.4 1 0.1
v -0.3 1 0.1
v -0.4 1 0
v -0.3 1 0
v -0.3 1.1 0.3
v -0.2 1.1 0.3
v 0.2 1.1 0.3
v 0.3 1.1 0.3
v -0.4 1.1 0.2
v -0.3 1.1 0.2
v -0.2 1.1 0.2
v 0.2 1.1 0.2
v 0.3 1.1 0.2
v 0.4 1.1 0.2
v -0.4 1.1 0.1
v -0.3 1.1 0.1
v -0.2 1.1 0.1
v 0.2 1.1 0.1
v 0.3 1.1 0.1
v 0.4 1.1 0.1
v -0.3 1.1 0
v -0.2 1.1 0
v 0.2 1.1 0
v 0.3 1.1 0
v -0.2 1.2 0.3
v 0.2 1.2 0.3
v -0.3 1.2 0.2
v -0.2 1.2 0.2
v 0.2 1.2 0.2
v 0.3 1.2 0.2
v -0.3 1.2 0.1
v -0.2 1.2 0.1
v 0.2 1.2 0.1
v 0.3 1.2 0.1
v -0.2 1.2 0
v 0.2 1.2 0
v -0.2 1.3 0.2
v 0.2 1.3 0.2
v -0.2 1.3 0.1
v 0.2 1.3 0.1

# faces
f 3/1/1 2/1/1 1/1/1
f 4/1/1 2/1/1 3/1/1
f 8/1/1 6/1/1 5/1/1
f 9/1/1 6/1/1 8/1/1
f 11/4/1 8/4/1 7/4/1
f 12/4/1 8/4/1 11/4/1
f 13/4/1 10/4/1 9/4/1
f 14/4/1 10/4/1 13/4/1
f 15/1/1 13/1/1 12/1/1
f 16/1/1 13/1/1 15/1/1
f 20/1/1 18/1/1 17/1/1
f 21/1/1 18/1/1 20/1/1
f 23/2/1 20/2/1 19/2/1
f 24/2/1 20/2/1 23/2/1
f 25/2/1 22/2/1 21/2/1
f 26/2/1 22/2/1 25/2/1
f 31/4/1 28/4/1 27/4/1
f 32/4/1 28/4/1 31/4/1
f 33/4/1 30/4/1 29/4/1
f 34/4/1 30/4/1 33/4/1
f 35/1/1 33/1/1 32/1/1
f 36/1/1 33/1/1 35/1/1
f 40/1/1 38/1/1 37/1/1
f 41/1/1 38/1/1 40/1/1
f 43/3/1 40/3/1 39/3/1
f 44/3/1 40/3/1 43/3/1
f 45/3/1 42/3/1 41/3/1
f 46/3/1 42/3/1 45/3/1
f 51/4/1 48/4/1 47/4/1
f 52/4/1 48/4/1 51/4/1
f 53/4/1 50/4/1 49/4/1
f 54/4/1 50/4/1 53/4/1
f 55/1/1 53/1/1 52/1/1
f 56/1/1 53/1/1 55/1/1
f 61/4/1 58/4/1 57/4/1
f 62/4/1 58/4/1 61/4/1
f 63/4/1 60/4/1 59/4/1
f 64/4/1 60/4/1 63/4/1
f 65/1/1 63/1/1 62/1/1
f 66/1/1 63/1/1 65/1/1
f 67/4/2 68/4/2 71/4/2
f 71/4/2 68/4/2 72/4/2
f 69/4/2 70/4/2 73/4/2
f 73/4/2 70/4/2 74/4/2
f 72/1/2 73/1/2 75/1/2
f 75/1/2 73/1/2 76/1/2
f 77/1/2 78/1/2 80/1/2
f 80/1/2 78/1/2 81/1/2
f 79/3/2 80/3/2 83/3/2
f 83/3/2 80/3/2 84/3/2
f 81/3/2 82/3/2 85/3/2
f 85/3/2 82/3/2 86/3/2
f 87/2/2 88/2/2 91/2/2
f 91/2/2 88/2/2 92/2/2
f 89/2/2 90/2/2 93/2/2
f 93/2/2 90/2/2 94/2/2
f 92/1/2 93/1/2 95/1/2
f 95/1/2 93/1/2 96/1/2
f 97/1/2 98/1/2 100/1/2
f 100/1/2 98/1/2 101/1/2
f 99/3/2 100/3/2 103/3/2
f 103/3/2 100/3/2 104/3/2
f 101/3/2 102/3/2 105/3/2
f 105/3/2 102/3/2 106/3/2
f 103/2/2 104/2/2 107/2/2
f 107/2/2 104/2/2 108/2/2
f 105/2/2 106/2/2 109/2/2
f 109/2/2 106/2/2 110/2/2
f 111/2/2 112/2/2 115/2/2
f 115/2/2 112/2/2 116/2/2
f 113/2/2 114/2/2 117/2/2
f 117/2/2 114/2/2 118/2/2
f 116/1/2 117/1/2 119/1/2
f 119/1/2 117/1/2 120/1/2
f 121/1/2 122/1/2 124/1/2
f 124/1/2 122/1/2 125/1/2
f 123/3/2 124/3/2 127/3/2
f 127/3/2 124/3/2 128/3/2
f 125/3/2 126/3/2 129/3/2
f 129/3/2 126/3/2 130/3/2
f 127/2/2 128/2/2 131/2/2
f 131/2/2 128/2/2 132/2/2
f 129/2/2 130/2/2 133/2/2
f 133/2/2 130/2/2 134/2/2
f 132/1/2 133/1/2 135/1/2
f 135/1/2 133/1/2 136/1/2
f 137/1/2 138/1/2 139/1/2
f 139/1/2 138/1/2 140/1/2
f 144/4/3 142/4/3 141/4/3
f 145/4/3 142/4/3 144/4/3
f 146/4/3 142/4/3 145/4/3
f 147/4/3 142/4/3 146/4/3
f 150/2/3 144/2/3 143/2/3
f 150/2/3 145/2/3 144/2/3
f 151/2/3 145/2/3 150/2/3
f 152/6/3 146/6/3 145/6/3
f 152/2/3 145/2/3 151/2/3
f 153/5/3 147/5/3 146/5/3
f 153/6/3 146/6/3 152/6/3
f 154/5/3 147/5/3 153/5/3
f 155/4/3 148/4/3 147/4/3
f 155/5/3 147/5/3 154/5/3
f 156/4/3 148/4/3 155/4/3
f 157/4/3 148/4/3 156/4/3
f 159/3/3 151/3/3 150/3/3
f 159/3/3 150/3/3 149/3/3
f 160/2/3 152/2/3 151/2/3
f 160/3/3 151/3/3 159/3/3
f 160/2/3 153/2/3 152/2/3
f 161/2/3 153/2/3 160/2/3
f 162/6/3 154/6/3 153/6/3
f 162/2/3 153/2/3 161/2/3
f 163/4/3 155/4/3 154/4/3
f 163/6/3 154/6/3 162/6/3
f 164/5/3 156/5/3 155/5/3
f 164/4/3 155/4/3 163/4/3
f 165/6/3 157/6/3 156/6/3
f 165/5/3 156/5/3 164/5/3
f 166/4/3 158/4/3 157/4/3
f 166/6/3 157/6/3 165/6/3
f 167/4/3 158/4/3 166/4/3
f 169/4/3 165/4/3 164/4/3
f 169/5/3 164/5/3 163/5/3
f 169/5/3 163/5/3 162/5/3
f 169/5/3 162/5/3 161/5/3
f 170/5/3 167/5/3 166/5/3
f 170/4/3 165/4/3 169/4/3
f 170/5/3 166/5/3 165/5/3
f 171/6/3 170/6/3 169/6/3
f 171/5/3 167/5/3 170/5/3
f 172/5/3 167/5/3 171/5/3
f 173/6/3 171/6/3 169/6/3
f 173/4/3 172/4/3 171/4/3
f 174/5/3 167/5/3 172/5/3
f 174/4/3 172/4/3 173/4/3
f 175/4/3 168/4/3 167/4/3
f 175/5/3 167/5/3 174/5/3
f 176/2/3 160/2/3 159/2/3
f 177/3/3 161/3/3 160/3/3
f 177/2/3 160/2/3 176/2/3
f 178/5/3 169/5/3 161/5/3
f 178/3/3 161/3/3 177/3/3
f 179/6/3 173/6/3 169/6/3
f 179/5/3 169/5/3 178/5/3
f 180/2/3 174/2/3 173/2/3
f 180/6/3 173/6/3 179/6/3
f 181/6/3 175/6/3 174/6/3
f 181/2/3 174/2/3 180/2/3
f 182/4/3 168/4/3 175/4/3
f 182/6/3 175/6/3 181/6/3
f 183/4/3 168/4/3 182/4/3
f 184/3/3 177/3/3 176/3/3
f 185/3/3 177/3/3 184/3/3
f 186/3/3 177/3/3 185/3/3
f 187/2/3 178/2/3 177/2/3
f 187/3/3 177/3/3 186/3/3
f 188/3/3 179/3/3 178/3/3
f 189/2/3 181/2/3 180/2/3
f 189/3/3 179/3/3 188/3/3
f 189/2/3 180/2/3 179/2/3
f 189/2/3 182/2/3 181/2/3
f 190/2/3 182/2/3 189/2/3
f 191/2/3 182/2/3 190/2/3
f 192/3/3 186/3/3 185/3/3
f 193/2/3 187/2/3 186/2/3
f 193/3/3 186/3/3 192/3/3
f 194/2/3 178/2/3 187/2/3
f 194/2/3 187/2/3 193/2/3
f 195/3/3 188/3/3 178/3/3
f 195/2/3 178/2/3 194/2/3
f 196/2/3 190/2/3 189/2/3
f 196/2/3 189/2/3 188/2/3
f 197/2/3 190/2/3 196/2/3
f 198/3/3 195/3/3 194/3/3
f 199/2/3 196/2/3 188/2/3
f 199/3/3 195/3/3 198/3/3
f 199/3/3 188/3/3 195/3/3
f 200/2/3 196/2/3 199/2/3
f 204/1/3 202/1/3 201/1/3
f 205/1/3 202/1/3 204/1/3
f 208/1/3 204/1/3 203/1/3
f 209/1/3 204/1/3 208/1/3
f 210/1/3 206/1/3 205/1/3
f 211/1/3 206/1/3 210/1/3
f 214/1/3 208/1/3 207/1/3
f 215/1/3 208/1/3 214/1/3
f 216/1/3 212/1/3 211/1/3
f 217/1/3 212/1/3 216/1/3
f 219/1/3 214/1/3 213/1/3
f 220/1/3 218/1/3 217/1/3
f 221/1/3 218/1/3 220/1/3
f 223/1/3 219/1/3 213/1/3
f 225/1/3 222/1/3 221/1/3
f 226/1/3 222/1/3 225/1/3
f 227/1/3 223/1/3 213/1/3
f 228/1/3 223/1/3 227/1/3
f 231/1/3 225/1/3 224/1/3
f 232/1/3 225/1/3 231/1/3
f 233/1/3 229/1/3 228/1/3
f 234/1/3 229/1/3 233/1/3
f 238/1/3 231/1/3 230/1/3
f 239/1/3 231/1/3 238/1/3
f 240/1/3 236/1/3 235/1/3
f 240/1/3 235/1/3 234/1/3
f 241/1/3 236/1/3 240/1/3
f 243/1/3 238/1/3 237/1/3
f 244/1/3 238/1/3 243/1/3
f 245/1/3 242/1/3 241/1/3
f 245/1/3 243/1/3 242/1/3
f 246/1/3 243/1/3 245/1/3
f 247/1/4 248/1/4 250/1/4
f 250/1/4 248/1/4 251/1/4
f 249/1/4 250/1/4 254/1/4
f 254/1/4 250/1/4 255/1/4
f 251/1/4 252/1/4 256/1/4
f 256/1/4 252/1/4 257/1/4
f 253/1/4 254/1/4 260/1/4
f 260/1/4 254/1/4 261/1/4
f 257/1/4 258/1/4 262/1/4
f 262/1/4 258/1/4 263/1/4
f 259/1/4 260/1/4 265/1/4
f 263/1/4 264/1/4 266/1/4
f 266/1/4 264/1/4 267/1/4
f 259/1/4 265/1/4 269/1/4
f 267/1/4 268/1/4 271/1/4
f 271/1/4 268/1/4 272/1/4
f 259/1/4 269/1/4 273/1/4
f 273/1/4 269/1/4 274/1/4
f 270/1/4 271/1/4 277/1/4
f 277/1/4 271/1/4 278/1/4
f 274/1/4 275/1/4 279/1/4
f 279/1/4 275/1/4 280/1/4
f 276/1/4 277/1/4 284/1/4
f 284/1/4 277/1/4 285/1/4
f 281/1/4 282/1/4 286/1/4
f 280/1/4 281/1/4 286/1/4
f 286/1/4 282/1/4 287/1/4
f 283/1/4 284/1/4 289/1/4
f 289/1/4 284/1/4 290/1/4
f 287/1/4 288/1/4 291/1/4
f 288/1/4 289/1/4 291/1/4
f 291/1/4 289/1/4 292/1/4
f 293/4/4 294/4/4 296/4/4
f 296/4/4 294/4/4 297/4/4
f 297/4/4 294/4/4 298/4/4
f 298/4/4 294/4/4 299/4/4
f 295/2/4 296/2/4 302/2/4
f 296/2/4 297/2/4 302/2/4
f 302/2/4 297/2/4 303/2/4
f 297/6/4 298/6/4 304/6/4
f 303/2/4 297/2/4 304/2/4
f 298/5/4 299/5/4 305/5/4
f 304/6/4 298/6/4 305/6/4
f 305/5/4 299/5/4 306/5/4
f 299/4/4 300/4/4 307/4/4
f 306/5/4 299/5/4 307/5/4
f 307/4/4 300/4/4 308/4/4
f 308/4/4 300/4/4 309/4/4
f 302/3/4 303/3/4 311/3/4
f 301/3/4 302/3/4 311/3/4
f 303/2/4 304/2/4 312/2/4
f 311/3/4 303/3/4 312/3/4
f 304/2/4 305/2/4 312/2/4
f 312/2/4 305/2/4 313/2/4
f 305/6/4 306/6/4 314/6/4
f 313/2/4 305/2/4 314/2/4
f 306/4/4 307/4/4 315/4/4
f 314/6/4 306/6/4 315/6/4
f 307/5/4 308/5/4 316/5/4
f 315/4/4 307/4/4 316/4/4
f 308/6/4 309/6/4 317/6/4
f 316/5/4 308/5/4 317/5/4
f 309/4/4 310/4/4 318/4/4
f 317/6/4 309/6/4 318/6/4
f 318/4/4 310/4/4 319/4/4
f 316/4/4 317/4/4 321/4/4
f 315/5/4 316/5/4 321/5/4
f 314/5/4 315/5/4 321/5/4
f 313/5/4 314/5/4 321/5/4
f 318/5/4 319/5/4 322/5/4
f 321/4/4 317/4/4 322/4/4
f 317/5/4 318/5/4 322/5/4
f 321/6/4 322/6/4 323/6/4
f 322/5/4 319/5/4 323/5/4
f 323/5/4 319/5/4 324/5/4
f 321/6/4 323/6/4 325/6/4
f 323/4/4 324/4/4 325/4/4
f 324/5/4 319/5/4 326/5/4
f 325/4/4 324/4/4 326/4/4
f 319/4/4 320/4/4 327/4/4
f 326/5/4 319/5/4 327/5/4
f 311/2/4 312/2/4 328/2/4
f 312/3/4 313/3/4 329/3/4
f 328/2/4 312/2/4 329/2/4
f 313/5/4 321/5/4 330/5/4
f 329/3/4 313/3/4 330/3/4
f 321/6/4 325/6/4 331/6/4
f 330/5/4 321/5/4 331/5/4
f 325/2/4 326/2/4 332/2/4
f 331/6/4 325/6/4 332/6/4
f 326/6/4 327/6/4 333/6/4
f 332/2/4 326/2/4 333/2/4
f 327/4/4 320/4/4 334/4/4
f 333/6/4 327/6/4 334/6/4
f 334/4/4 320/4/4 335/4/4
f 328/3/4 329/3/4 336/3/4
f 336/3/4 329/3/4 337/3/4
f 337/3/4 329/3/4 338/3/4
f 329/2/4 330/2/4 339/2/4
f 338/3/4 329/3/4 339/3/4
f 330/3/4 331/3/4 340/3/4
f 332/2/4 333/2/4 341/2/4
f 340/3/4 331/3/4 341/3/4
f 331/2/4 332/2/4 341/2/4
f 333/2/4 334/2/4 341/2/4
f 341/2/4 334/2/4 342/2/4
f 342/2/4 334/2/4 343/2/4
f 337/3/4 338/3/4 344/3/4
f 338/2/4 339/2/4 345/2/4
f 344/3/4 338/3/4 345/3/4
f 339/2/4 330/2/4 346/2/4
f 345/2/4 339/2/4 346/2/4
f 330/3/4 340/3/4 347/3/4
f 346/2/4 330/2/4 347/2/4
f 341/2/4 342/2/4 348/2/4
f 340/2/4 341/2/4 348/2/4
f 348/2/4 342/2/4 349/2/4
f 346/3/4 347/3/4 350/3/4
f 340/2/4 348/2/4 351/2/4
f 350/3/4 347/3/4 351/3/4
f 347/3/4 340/3/4 351/3/4
f 351/2/4 348/2/4 352/2/4
f 355/1/5 354/1/5 353/1/5
f 356/1/5 354/1/5 355/1/5
f 362/3/5 358/3/5 357/3/5
f 363/2/5 359/2/5 358/2/5
f 363/3/5 358/3/5 362/3/5
f 364/3/5 360/3/5 359/3/5
f 364/2/5 359/2/5 363/2/5
f 365/3/5 360/3/5 364/3/5
f 367/1/5 362/1/5 361/1/5
f 368/1/5 362/1/5 367/1/5
f 371/1/5 366/1/5 365/1/5
f 372/1/5 366/1/5 371/1/5
f 373/3/5 369/3/5 368/3/5
f 374/2/5 370/2/5 369/2/5
f 374/3/5 369/3/5 373/3/5
f 375/3/5 371/3/5 370/3/5
f 375/2/5 370/2/5 374/2/5
f 376/3/5 371/3/5 375/3/5
f 382/2/5 378/2/5 377/2/5
f 383/2/5 378/2/5 382/2/5
f 384/3/5 380/3/5 379/3/5
f 385/3/5 380/3/5 384/3/5
f 387/1/5 382/1/5 381/1/5
f 388/1/5 382/1/5 387/1/5
f 391/1/5 386/1/5 385/1/5
f 392/1/5 386/1/5 391/1/5
f 393/2/5 389/2/5 388/2/5
f 394/2/5 389/2/5 393/2/5
f 395/3/5 391/3/5 390/3/5
f 396/3/5 391/3/5 395/3/5
f 402/4/5 398/4/5 397/4/5
f 403/4/5 398/4/5 402/4/5
f 404/3/5 400/3/5 399/3/5
f 405/3/5 400/3/5 404/3/5
f 407/1/5 402/1/5 401/1/5
f 408/1/5 402/1/5 407/1/5
f 411/1/5 406/1/5 405/1/5
f 412/1/5 406/1/5 411/1/5
f 413/4/5 409/4/5 408/4/5
f 414/4/5 409/4/5 413/4/5
f 415/3/5 411/3/5 410/3/5
f 416/3/5 411/3/5 415/3/5
f 417/2/6 418/2/6 419/2/6
f 419/2/6 418/2/6 420/2/6
f 420/1/6 421/1/6 423/1/6
f 423/1/6 421/1/6 424/1/6
f 422/2/6 423/2/6 425/2/6
f 425/2/6 423/2/6 426/2/6
f 427/4/6 428/4/6 430/4/6
f 430/4/6 428/4/6 431/4/6
f 429/1/6 430/1/6 432/1/6
f 432/1/6 430/1/6 433/1/6
f 433/4/6 434/4/6 435/4/6
f 435/4/6 434/4/6 436/4/6
f 437/2/6 438/2/6 439/2/6
f 439/2/6 438/2/6 440/2/6
f 440/1/6 441/1/6 443/1/6
f 443/1/6 441/1/6 444/1/6
f 442/2/6 443/2/6 445/2/6
f 445/2/6 443/2/6 446/2/6
f 447/4/6 448/4/6 450/4/6
f 450/4/6 448/4/6 451/4/6
f 449/1/6 450/1/6 452/1/6
f 452/1/6 450/1/6 453/1/6
f 453/4/6 454/4/6 455/4/6
f 455/4/6 454/4/6 456/4/6
f 457/4/6 458/4/6 462/4/6
f 462/4/6 458/4/6 463/4/6
f 459/2/6 460/2/6 464/2/6
f 464/2/6 460/2/6 465/2/6
f 461/1/6 462/1/6 467/1/6
f 467/1/6 462/1/6 468/1/6
f 465/1/6 466/1/6 471/1/6
f 471/1/6 466/1/6 472/1/6
f 468/4/6 469/4/6 473/4/6
f 473/4/6 469/4/6 474/4/6
f 470/2/6 471/2/6 475/2/6
f 475/2/6 471/2/6 476/2/6
f 477/4/6 478/4/6 480/4/6
f 480/4/6 478/4/6 481/4/6
f 479/1/6 480/1/6 483/1/6
f 483/1/6 480/1/6 484/1/6
f 481/1/6 482/1/6 485/1/6
f 485/1/6 482/1/6 486/1/6
f 484/4/6 485/4/6 487/4/6
f 487/4/6 485/4/6 488/4/6
f 489/1/6 490/1/6 491/1/6
f 491/1/6 490/1/6 492/1/6
